<?xml version="1.0" encoding="utf-8"?>
<!-- Generator: Adobe Illustrator 24.0.2, SVG Export Plug-In . SVG Version: 6.00 Build 0)  -->
<svg version="1.1" id="Layer_1" xmlns="http://www.w3.org/2000/svg" xmlns:xlink="http://www.w3.org/1999/xlink" x="0px" y="0px"
	 viewBox="0 0 570 157" style="enable-background:new 0 0 570 157;" xml:space="preserve">
<style type="text/css">
	.st0{fill:#000080;}
	.st1{fill:#FC5B0B;}
	.st2{fill:#4C535B;}
</style>
<g id="Dark">
	<path class="st0" d="M49.2,112.8c-9.7,0-17.5-1.3-23.5-3.1c-1.1-0.4-2.3-1.1-2.2-2.4l2-14.6c0.2-1.5,1.4-2.4,2.6-2.4
		c0.1,0,0.1,0,0.2,0c4.9,0.5,17.5,1.8,23.8,1.8c5.8,0,7.8-2.2,8.3-6c0.3-2.4-0.7-3.7-4.7-6.3L40.2,69.8c-10.2-6.5-12-14.6-10.8-23.7
		c1.8-12.9,10.4-23.6,34.3-23.6c9.4,0,21.8,1.5,26.5,3c1,0.4,2,0.9,1.8,2.2L90,42.6c-0.2,1.2-1.1,2.2-2.4,2.2c-0.1,0-0.1,0-0.2,0
		c-4.8-0.4-18.1-1.5-26.7-1.5c-4.4,0-6.1,1.5-6.5,4c-0.3,2.1,0.6,3.3,5.3,6l14.8,8.5c10.6,6.2,13.7,14,12.3,23.8
		C84.6,99,73.6,112.8,49.2,112.8z"/>
	<path class="st0" d="M177.6,26.3l-23.1,40.8c-3.3,5.8-6.5,8.9-9.8,10.2l-4.5,32.1c-0.2,1.3-1.4,2.4-2.7,2.4h-19.3
		c-1.3,0-2.1-1.1-1.9-2.4l4.5-32.1c-3-1.3-5.3-4.4-7-10.2l-11.7-40.8c-0.1-0.4-0.2-0.6-0.1-0.9c0.1-0.8,0.8-1.5,1.9-1.5h21.4
		c1.2,0,1.7,1.1,2.1,2.2l7,31.4c0.2,0.9,0.7,1.2,1,1.2c0.4,0,0.9-0.2,1.4-1.2L152.4,26c0.6-1.2,1.5-2.2,2.7-2.2h21.4
		c1.1,0,1.6,0.7,1.4,1.5C178,25.7,177.8,25.9,177.6,26.3z"/>
	<path class="st0" d="M201.8,112.8c-9.7,0-17.5-1.3-23.5-3.1c-1.1-0.4-2.3-1.1-2.2-2.4l2-14.6c0.2-1.5,1.4-2.4,2.6-2.4
		c0.1,0,0.1,0,0.2,0c4.9,0.5,17.5,1.8,23.8,1.8c5.8,0,7.8-2.2,8.3-6c0.3-2.4-0.7-3.7-4.7-6.3l-15.6-10.1
		c-10.2-6.5-12-14.6-10.8-23.7c1.8-12.9,10.4-23.6,34.3-23.6c9.4,0,21.8,1.5,26.5,3c1,0.4,2,0.9,1.8,2.2l-2.1,14.8
		c-0.2,1.2-1.1,2.2-2.4,2.2c-0.1,0-0.1,0-0.2,0c-4.8-0.4-18.1-1.5-26.7-1.5c-4.4,0-6.1,1.5-6.5,4c-0.3,2.1,0.6,3.3,5.3,6l14.8,8.5
		c10.6,6.2,13.7,14,12.3,23.8C237.3,99,226.2,112.8,201.8,112.8z"/>
	<path class="st0" d="M309.9,43.3h-23.9c-4.3,0-5.9,1.3-6.5,5.9l-1.2,8.5h29.1c1.3,0,2.2,1.1,2,2.4l-2,14c-0.2,1.3-1.4,2.4-2.7,2.4
		h-29.1l-4.6,32.9c-0.2,1.3-1.4,2.4-2.7,2.4H249c-1.3,0-2.2-1.1-2-2.4l8.5-60.2c3.2-22.9,18.9-26.5,34-26.5
		c11.5,0,18.7,0.8,23.1,1.4c1.5,0.2,2.2,0.9,2,2.4l-2,14.4C312.4,42.2,311.2,43.3,309.9,43.3z"/>
	<path class="st0" d="M343.9,84c0.9,5.4,4.1,7.7,9.7,7.7c8.3,0,12.7-5.1,14.5-17.8l1.7-12.2c1.8-12.7-1.2-17.9-9.4-17.9
		c-5.4,0-9.1,2.2-11.6,7.2l-19.8-11.2c8-12.5,20.8-17.3,34.3-17.3c19.7,0,34.9,10.2,30.9,39.1l-1.7,12.2c-4.1,28.9-22.2,39-41.8,39
		c-13.7,0-25.2-4.9-29.6-17.6L343.9,84z"/>
	<path class="st0" d="M470.3,111.8h-21.8c-1.3,0-1.6-1.2-2-2.4L435.7,81l-0.8-0.5c-1.2,0-5-0.1-6.1-0.1l-4.1,29
		c-0.2,1.3-1.4,2.4-2.7,2.4h-19.2c-1.3,0-2.3-1.1-2.2-2.4L411.5,32c0.8-5.7,2.9-7,8-7.8c4.8-0.7,16.8-1.5,25.2-1.5
		c22,0,36.1,7,33,28.7l-0.3,1.9c-1.8,12.7-9.8,20.1-17.7,23.3l12.6,32.2c0.2,0.5,0.2,0.9,0.2,1.3
		C472.4,111.1,471.5,111.8,470.3,111.8z M453.8,51.3c0.8-5.6-2.7-8.4-10.7-8.4c-0.8,0-8.4,0.2-9.2,0.2l-2.6,18.8
		c0.6,0.1,7.9,0.1,8.6,0.1c9.1,0,12.8-3.2,13.5-8.8L453.8,51.3z"/>
	<path class="st0" d="M537.1,111.4c-4.6,0.6-12,1.4-23.5,1.4c-15.2,0-29.8-3.6-26.6-26.5l5.2-37.2c3.2-22.9,18.9-26.5,34-26.5
		c11.5,0,18.7,0.8,23.1,1.4c1.5,0.2,2.2,0.9,2,2.4l-2,14.4c-0.2,1.3-1.4,2.4-2.7,2.4h-23.9c-4.3,0-5.9,1.3-6.5,5.9l-1.2,8.6h29.1
		c1.3,0,2.2,1.1,2,2.4l-2,14c-0.2,1.3-1.4,2.4-2.7,2.4h-29.1l-1.4,9.8c-0.6,4.6,0.6,5.9,4.9,5.9h23.9c1.3,0,2.2,1.1,2,2.4l-2,14.4
		C539.6,110.5,538.7,111.2,537.1,111.4z"/>
	<path class="st1" d="M326.6,44.6c0,0-3,4.9-4.6,16.3l-1.7,13.8c0,0-1,8.6-0.1,15L362,70.2c2.7-1.2,2.8-5,0.2-6.4L326.6,44.6z"/>
	<g>
		<path class="st2" d="M250.2,130.6h-3.5v-1.8h9v1.8h-3.5v11.5h-1.9V130.6z"/>
		<path class="st2" d="M273.1,128.9h8v1.7h-6.1v3.7h5.3v1.8h-5.3v4.3h6.3v1.8h-8.2V128.9z"/>
		<path class="st2" d="M307,131.9h-2c0-0.5-0.2-0.8-0.5-1.1s-0.6-0.4-1.1-0.4c-0.8,0-1.3,0.4-1.7,1.3s-0.6,2.1-0.6,3.7
			c0,1.7,0.2,3,0.6,3.9s1,1.3,1.8,1.3c0.5,0,0.9-0.1,1.2-0.4s0.4-0.6,0.5-1.1h2c-0.1,1-0.5,1.8-1.1,2.4c-0.6,0.6-1.4,0.9-2.4,0.9
			c-1.5,0-2.6-0.6-3.4-1.8c-0.8-1.2-1.2-3-1.2-5.2c0-2.1,0.4-3.7,1.2-4.9s1.9-1.8,3.3-1.8c1,0,1.8,0.3,2.4,0.9
			S306.9,130.9,307,131.9z"/>
		<path class="st2" d="M324.5,128.8h1.9v5.6h4.6v-5.6h1.9v13.4h-1.9v-6.1h-4.6v6.1h-1.9V128.8z"/>
		<path class="st2" d="M350.2,128.8h2.3l4.8,10v-10h1.8v13.4h-2.2l-4.9-10.1v10.1h-1.8V128.8z"/>
		<path class="st2" d="M385.3,135.5c0,2-0.5,3.7-1.4,5s-2,1.9-3.4,1.9c-1.4,0-2.5-0.6-3.4-1.9c-0.9-1.3-1.4-3-1.4-5
			c0-2,0.5-3.7,1.4-5c0.9-1.3,2-1.9,3.4-1.9c1.4,0,2.5,0.6,3.4,1.9S385.3,133.4,385.3,135.5z M380.5,140.6c0.8,0,1.5-0.5,2-1.4
			c0.5-0.9,0.7-2.2,0.7-3.8c0-1.6-0.2-2.9-0.7-3.8s-1.2-1.4-2-1.4c-0.8,0-1.5,0.5-2,1.4s-0.7,2.2-0.7,3.8c0,1.6,0.2,2.9,0.7,3.8
			C379,140.1,379.7,140.6,380.5,140.6z"/>
		<path class="st2" d="M402.7,128.8h1.9v11.5h6.8v1.8h-8.7V128.8z"/>
		<path class="st2" d="M437,135.5c0,2-0.5,3.7-1.4,5s-2,1.9-3.4,1.9c-1.4,0-2.5-0.6-3.4-1.9c-0.9-1.3-1.4-3-1.4-5c0-2,0.5-3.7,1.4-5
			c0.9-1.3,2-1.9,3.4-1.9c1.4,0,2.5,0.6,3.4,1.9S437,133.4,437,135.5z M432.2,140.6c0.8,0,1.5-0.5,2-1.4c0.5-0.9,0.7-2.2,0.7-3.8
			c0-1.6-0.2-2.9-0.7-3.8s-1.2-1.4-2-1.4c-0.8,0-1.5,0.5-2,1.4s-0.7,2.2-0.7,3.8c0,1.6,0.2,2.9,0.7,3.8
			C430.8,140.1,431.4,140.6,432.2,140.6z"/>
		<path class="st2" d="M457.8,135h4.8v6.6c-0.8,0.3-1.6,0.5-2.1,0.6c-0.6,0.1-1.1,0.2-1.7,0.2c-1.7,0-3-0.6-3.9-1.8
			c-0.9-1.2-1.4-2.9-1.4-5.1c0-2.1,0.5-3.8,1.4-5c1-1.2,2.3-1.8,3.9-1.8c1,0,1.8,0.2,2.5,0.7c0.7,0.5,1.1,1.2,1.2,2h-2
			c-0.2-0.3-0.4-0.6-0.7-0.8s-0.6-0.3-1-0.3c-1.1,0-1.9,0.4-2.5,1.3s-0.8,2.1-0.8,3.8c0,1.7,0.3,3,0.8,3.9c0.5,0.9,1.4,1.3,2.4,1.3
			c0.3,0,0.5,0,0.9-0.1s0.6-0.2,1-0.3v-3.4h-2.9V135z"/>
		<path class="st2" d="M480.6,140.3h2.4v-9.7h-2v-1.7h5.9v1.7h-2v9.7h2.4v1.8h-6.8V140.3z"/>
		<path class="st2" d="M506,128.9h8v1.7h-6.1v3.7h5.3v1.8h-5.3v4.3h6.3v1.8H506V128.9z"/>
		<path class="st2" d="M537.8,132c0-0.5-0.2-1-0.6-1.3s-0.8-0.5-1.4-0.5c-0.6,0-1.1,0.2-1.5,0.5c-0.4,0.3-0.6,0.7-0.6,1.2
			c0,0.4,0.2,0.8,0.5,1.1s0.9,0.7,1.8,1.2l0.8,0.4c1.2,0.6,2,1.2,2.4,1.8s0.7,1.3,0.7,2.2c0,1.1-0.4,2-1.2,2.7c-0.8,0.7-1.9,1-3.2,1
			c-1.3,0-2.2-0.3-2.9-1s-1-1.6-1.1-2.9h2.1v0.1c0,0.7,0.2,1.2,0.5,1.5s0.8,0.5,1.4,0.5c0.7,0,1.3-0.2,1.7-0.6
			c0.4-0.4,0.7-0.8,0.7-1.4c0-0.5-0.1-0.9-0.4-1.2c-0.3-0.3-1-0.8-2.2-1.4l-0.9-0.5c-0.9-0.4-1.5-0.9-1.9-1.5s-0.6-1.3-0.6-2
			c0-1,0.4-1.9,1.2-2.5s1.8-1,3.1-1c1.1,0,2.1,0.3,2.7,0.9s1.1,1.5,1.2,2.5H537.8z"/>
	</g>
</g>
</svg>
