<?xml version="1.0" encoding="UTF-8"?>
<svg id="Layer_1" data-name="Layer 1" xmlns="http://www.w3.org/2000/svg" viewBox="0 0 122.67 27.83">
  <defs>
    <style>
      .cls-1 {
        fill: #fff;
      }

      .cls-1, .cls-2 {
        stroke-width: 0px;
      }

      .cls-2 {
        fill: #fc5b0b;
      }
    </style>
  </defs>
  <g id="Dark">
    <path class="cls-1" d="M5.96,20.96c-2.26,0-4.06-.3-5.46-.72-.26-.08-.54-.25-.5-.55l.48-3.38c.05-.36.32-.55.6-.55h.05c1.14.11,4.07.41,5.53.41,1.35,0,1.81-.52,1.93-1.4.08-.55-.16-.85-1.09-1.46l-3.63-2.34c-2.37-1.51-2.8-3.38-2.5-5.5C1.79,2.48,3.79,0,9.35,0c2.17,0,5.07.36,6.15.69.24.08.46.22.42.52l-.48,3.44c-.04.28-.27.52-.57.52h-.06c-1.12-.08-4.21-.36-6.2-.36-1.02,0-1.43.36-1.51.94-.07.5.14.77,1.23,1.4l3.44,1.98c2.47,1.43,3.18,3.25,2.85,5.53-.43,3.08-3,6.3-8.67,6.3Z"/>
    <path class="cls-1" d="M35.81.85l-5.38,9.49c-.77,1.35-1.5,2.06-2.29,2.37l-1.05,7.46c-.04.3-.32.55-.63.55h-4.48c-.3,0-.49-.25-.45-.55l1.05-7.46c-.7-.3-1.23-1.02-1.62-2.37L18.25.85c-.02-.08-.04-.14-.02-.22.03-.19.19-.36.44-.36h4.98c.28,0,.41.25.48.52l1.62,7.29c.05.22.15.28.24.28s.2-.05.31-.28l3.67-7.29c.15-.28.35-.52.62-.52h4.98c.25,0,.36.17.33.36-.01.08-.05.14-.09.22Z"/>
    <path class="cls-1" d="M41.43,20.96c-2.26,0-4.06-.3-5.46-.72-.26-.08-.54-.25-.5-.55l.48-3.38c.05-.36.32-.55.6-.55h.05c1.14.11,4.07.41,5.53.41,1.35,0,1.81-.52,1.93-1.4.08-.55-.16-.85-1.09-1.46l-3.63-2.34c-2.37-1.51-2.8-3.38-2.5-5.5.42-3,2.42-5.48,7.98-5.48,2.17,0,5.07.36,6.15.69.24.08.46.22.42.52l-.48,3.44c-.04.28-.27.52-.57.52h-.05c-1.12-.08-4.21-.36-6.2-.36-1.02,0-1.43.36-1.51.94-.07.5.14.77,1.23,1.4l3.44,1.98c2.47,1.43,3.18,3.25,2.85,5.53-.43,3.08-3,6.3-8.67,6.3Z"/>
    <path class="cls-1" d="M66.53,4.8h-5.56c-.99,0-1.36.3-1.51,1.38l-.28,1.98h6.77c.3,0,.52.25.47.55l-.46,3.25c-.04.3-.32.55-.63.55h-6.77l-1.07,7.65c-.04.3-.32.55-.63.55h-4.48c-.3,0-.52-.25-.47-.55l1.96-13.98C54.62.87,58.26.01,61.78.01c2.67,0,4.35.19,5.37.33.35.05.52.22.47.55l-.47,3.36c-.04.3-.32.55-.63.55Z"/>
    <path class="cls-1" d="M74.43,14.26c.22,1.24.95,1.78,2.25,1.78,1.93,0,2.94-1.18,3.36-4.13l.4-2.83c.41-2.94-.27-4.15-2.19-4.15-1.25,0-2.12.51-2.69,1.68l-4.59-2.59c1.86-2.89,4.83-4.02,7.98-4.02,4.57,0,8.11,2.37,7.17,9.08l-.4,2.83c-.94,6.71-5.15,9.05-9.72,9.05-3.18,0-5.86-1.13-6.88-4.08l5.33-2.62Z"/>
    <path class="cls-1" d="M103.81,20.72h-5.06c-.3,0-.37-.28-.47-.55l-2.51-6.6-.18-.11c-.28,0-1.15-.03-1.43-.03l-.95,6.74c-.04.3-.32.55-.63.55h-4.46c-.3,0-.54-.25-.5-.55l2.53-17.99c.19-1.32.67-1.62,1.85-1.82,1.12-.17,3.9-.36,5.86-.36,5.12,0,8.38,1.62,7.68,6.66l-.06.44c-.41,2.94-2.28,4.68-4.12,5.42l2.94,7.48c.04.11.05.22.04.3-.03.25-.25.41-.53.41ZM99.98,6.66c.18-1.29-.63-1.95-2.48-1.95-.19,0-1.96.05-2.13.05l-.61,4.37c.13.03,1.84.03,2,.03,2.12,0,2.97-.74,3.15-2.04l.07-.47Z"/>
    <path class="cls-1" d="M119.34,20.63c-1.06.14-2.8.33-5.47.33-3.52,0-6.93-.83-6.18-6.16l1.21-8.64c.75-5.31,4.39-6.16,7.91-6.16,2.67,0,4.35.19,5.37.33.35.06.52.22.47.55l-.47,3.36c-.04.3-.32.55-.63.55h-5.56c-.99,0-1.36.3-1.51,1.38l-.28,2.01h6.77c.3,0,.52.25.47.55l-.46,3.25c-.04.3-.32.55-.63.55h-6.77l-.32,2.28c-.15,1.07.14,1.38,1.13,1.38h5.56c.3,0,.52.25.47.55l-.47,3.36c-.05.33-.26.5-.63.55Z"/>
    <path class="cls-2" d="M70.41,5.12s-.7,1.14-1.07,3.79l-.4,3.22s-.23,1.99-.03,3.48l9.75-4.54c.62-.29.65-1.16.04-1.49l-8.29-4.46Z"/>
    <g>
      <path class="cls-1" d="M52.66,25.1h-.82v-.41h2.09v.41h-.82v2.68h-.44v-2.68Z"/>
      <path class="cls-1" d="M58,24.69h1.85v.39h-1.41v.86h1.24v.41h-1.24v.99h1.45v.41h-1.9v-3.06Z"/>
      <path class="cls-1" d="M65.86,25.39h-.46c0-.11-.04-.2-.11-.25s-.15-.09-.26-.09c-.18,0-.31.1-.41.3s-.14.49-.14.87c0,.4.05.7.14.91s.23.31.41.31c.11,0,.2-.03.27-.09s.1-.15.11-.25h.46c-.03.23-.12.42-.26.55-.14.13-.33.2-.55.2-.34,0-.6-.14-.78-.43-.18-.28-.28-.69-.28-1.22,0-.48.09-.86.28-1.13s.44-.41.77-.41c.23,0,.41.07.56.2s.23.31.25.54Z"/>
      <path class="cls-1" d="M69.94,24.67h.44v1.3h1.07v-1.3h.44v3.12h-.44v-1.41h-1.07v1.41h-.44v-3.12Z"/>
      <path class="cls-1" d="M75.9,24.67h.53l1.11,2.33v-2.33h.42v3.12h-.51l-1.13-2.35v2.35h-.42v-3.12Z"/>
      <path class="cls-1" d="M84.06,26.22c0,.47-.1.86-.31,1.16s-.48.45-.8.45-.59-.15-.8-.45c-.21-.3-.32-.69-.32-1.16s.11-.86.32-1.16c.21-.3.48-.45.8-.45s.59.15.8.45.31.69.31,1.16ZM82.94,27.41c.19,0,.34-.11.46-.32.12-.22.17-.51.17-.88s-.06-.66-.17-.88-.27-.32-.46-.32-.34.11-.46.32-.17.51-.17.88.06.66.17.88c.11.22.27.32.46.32Z"/>
      <path class="cls-1" d="M88.11,24.67h.44v2.68h1.57v.41h-2.01v-3.09Z"/>
      <path class="cls-1" d="M96.08,26.22c0,.47-.1.86-.31,1.16s-.48.45-.8.45-.59-.15-.8-.45c-.21-.3-.32-.69-.32-1.16s.11-.86.32-1.16c.21-.3.48-.45.8-.45s.59.15.8.45.31.69.31,1.16ZM94.97,27.41c.19,0,.34-.11.46-.32.12-.22.17-.51.17-.88s-.06-.66-.17-.88-.27-.32-.46-.32-.34.11-.46.32-.17.51-.17.88.06.66.17.88c.11.22.27.32.46.32Z"/>
      <path class="cls-1" d="M100.91,26.12h1.12v1.53c-.19.07-.36.11-.5.14-.14.03-.27.04-.38.04-.39,0-.69-.14-.91-.43-.22-.28-.33-.68-.33-1.2s.11-.88.33-1.16c.22-.28.53-.42.92-.42.23,0,.43.06.58.17.15.11.25.27.29.47h-.46c-.05-.08-.1-.14-.17-.18s-.14-.06-.22-.06c-.26,0-.45.1-.58.3s-.2.5-.2.89.06.71.19.91c.13.21.32.31.57.31.06,0,.13,0,.2-.02s.15-.04.23-.08v-.8h-.67v-.41Z"/>
      <path class="cls-1" d="M106.21,27.34h.56v-2.25h-.46v-.4h1.38v.4h-.47v2.25h.56v.41h-1.57v-.41Z"/>
      <path class="cls-1" d="M112.12,24.69h1.85v.39h-1.41v.86h1.24v.41h-1.24v.99h1.45v.41h-1.9v-3.06Z"/>
      <path class="cls-1" d="M119.49,25.43c0-.13-.05-.22-.13-.29s-.19-.11-.33-.11-.25.04-.34.11c-.09.08-.13.17-.13.29,0,.1.04.18.11.26s.22.17.43.27l.18.08c.27.13.46.27.57.41s.16.31.16.52c0,.26-.09.47-.28.62-.19.15-.44.23-.75.23-.29,0-.51-.08-.67-.23s-.24-.38-.25-.67h.48v.02c0,.15.04.27.12.36s.19.13.33.13c.16,0,.29-.04.39-.13.1-.09.15-.2.15-.33,0-.11-.03-.21-.1-.29-.07-.08-.24-.18-.52-.31l-.22-.11c-.2-.1-.35-.21-.45-.35s-.15-.29-.15-.47c0-.24.09-.44.27-.59s.42-.22.71-.22c.26,0,.48.07.64.21.16.14.25.34.27.59h-.47Z"/>
    </g>
  </g>
</svg>